HIERARCHY
ROOT Hips
{
  OFFSET -4.35178 90.3298 111.633
  CHANNELS 6 Xposition Yposition Zposition Zrotation Xrotation Yrotation
  JOINT LeftUpLeg
  {
    OFFSET 0.103456 1.85784 10.5485
    CHANNELS 6 Xposition Yposition Zposition Zrotation Xrotation Yrotation
    JOINT LeftLeg
    {
      OFFSET 43.5 -4.2e-05 0
      CHANNELS 6 Xposition Yposition Zposition Zrotation Xrotation Yrotation
      JOINT LeftFoot
      {
        OFFSET 42.3722 1.9e-05 0
        CHANNELS 6 Xposition Yposition Zposition Zrotation Xrotation Yrotation
        JOINT LeftToe
        {
          OFFSET 17.3 0 0
          CHANNELS 6 Xposition Yposition Zposition Zrotation Xrotation Yrotation
          End Site
          {
            OFFSET 0 0 0
          }
        }
      }
    }
  }
  JOINT RightUpLeg
  {
    OFFSET 0.103456 1.85782 -10.5485
    CHANNELS 6 Xposition Yposition Zposition Zrotation Xrotation Yrotation
    JOINT RightLeg
    {
      OFFSET 43.5 -2.7e-05 0
      CHANNELS 6 Xposition Yposition Zposition Zrotation Xrotation Yrotation
      JOINT RightFoot
      {
        OFFSET 42.3723 0 0
        CHANNELS 6 Xposition Yposition Zposition Zrotation Xrotation Yrotation
        JOINT RightToe
        {
          OFFSET 17.3 0 1.7e-05
          CHANNELS 6 Xposition Yposition Zposition Zrotation Xrotation Yrotation
          End Site
          {
            OFFSET 0 0 0
          }
        }
      }
    }
  }
  JOINT Spine
  {
    OFFSET 6.90197 -2.60373 0
    CHANNELS 6 Xposition Yposition Zposition Zrotation Xrotation Yrotation
    JOINT Spine1
    {
      OFFSET 12.5881 0 0
      CHANNELS 6 Xposition Yposition Zposition Zrotation Xrotation Yrotation
      JOINT Spine2
      {
        OFFSET 12.3432 -1.8e-05 0
        CHANNELS 6 Xposition Yposition Zposition Zrotation Xrotation Yrotation
        JOINT Neck
        {
          OFFSET 25.8329 2.3e-05 0
          CHANNELS 6 Xposition Yposition Zposition Zrotation Xrotation Yrotation
          JOINT Head
          {
            OFFSET 11.7666 0 0
            CHANNELS 6 Xposition Yposition Zposition Zrotation Xrotation Yrotation
            End Site
            {
              OFFSET 0 0 0
            }
          }
        }
        JOINT LeftShoulder
        {
          OFFSET 19.7459 -1.48035 6.0001
          CHANNELS 6 Xposition Yposition Zposition Zrotation Xrotation Yrotation
          JOINT LeftArm
          {
            OFFSET 11.2841 1.8e-05 -2e-05
            CHANNELS 6 Xposition Yposition Zposition Zrotation Xrotation Yrotation
            JOINT LeftForeArm
            {
              OFFSET 33 -1.3e-05 1.9e-05
              CHANNELS 6 Xposition Yposition Zposition Zrotation Xrotation Yrotation
              JOINT LeftHand
              {
                OFFSET 25.2 3.2e-05 1.1e-05
                CHANNELS 6 Xposition Yposition Zposition Zrotation Xrotation Yrotation
                End Site
                {
                  OFFSET 0 0 0
                }
              }
            }
          }
        }
        JOINT RightShoulder
        {
          OFFSET 19.7461 -1.48036 -6.00008
          CHANNELS 6 Xposition Yposition Zposition Zrotation Xrotation Yrotation
          JOINT RightArm
          {
            OFFSET 11.2841 0 0
            CHANNELS 6 Xposition Yposition Zposition Zrotation Xrotation Yrotation
            JOINT RightForeArm
            {
              OFFSET 33.0001 1.6e-05 0
              CHANNELS 6 Xposition Yposition Zposition Zrotation Xrotation Yrotation
              JOINT RightHand
              {
                OFFSET 25.1998 0.000123 0.000432
                CHANNELS 6 Xposition Yposition Zposition Zrotation Xrotation Yrotation
                End Site
                {
                  OFFSET 0 0 0
                }
              }
            }
          }
        }
      }
    }
  }
}
MOTION
Frames:	4
Frame Time:	0.0333333
134.905 81.6331 237.882 75.4978 -74.1692 -10.7747 0.103456 1.85784 10.5485 -33.9607 9.28611 174.335 43.5 -4.2e-05 1e-05 -43.6546 -2.42646 1.31274 42.3722 1.9e-05 -1.42109e-14 78.3475 -3.34113 -0.112474 17.3 -1.42109e-14 3e-06 21.4546 -1e-06 0.003093 0.103456 1.85782 -10.5485 11.0427 11.3963 -169.593 43.5 -2.7e-05 4e-06 -27.3003 29.1108 -8.93055 42.3723 2.84217e-14 1e-05 107.231 31.6895 -47.6523 17.3 -6e-06 1.7e-05 21.4546 -1.9e-05 -0.003116 6.90197 -2.60373 -3e-06 13.5511 -0.127227 0.640832 12.5881 1e-05 8e-06 17.0845 0.111877 1.32791 12.3432 -1.8e-05 -5e-06 16.7569 0.450137 1.32926 25.8329 2.3e-05 7e-06 9.07256 -4.58152 -3.71307 11.7666 -8e-06 -6e-06 -40.6021 -10.9179 8.00801 19.7459 -1.48035 6.0001 -171.658 14.2915 -82.7593 11.2841 1.8e-05 -2e-05 17.1466 -25.5312 78.4687 33 -1.3e-05 1.9e-05 -94.1777 -4.665 -5.38642 25.2 3.2e-05 1.1e-05 -20.5921 34.611 -2.18786 19.7461 -1.48036 -6.00008 -169.69 -23.718 72.9169 11.2841 0 -1e-06 -11.7031 0.999191 -27.4999 33.0001 1.6e-05 -1e-06 -89.5748 -12.7854 22.977 25.1998 0.000123 0.000432 -9.46152 -36.7211 30.9114 
134.248 80.1636 238.062 78.0995 -75.0336 -8.50589 0.103456 1.85784 10.5485 -37.5795 8.9822 175.32 43.5 -4.2e-05 1e-05 -39.4482 -3.42699 2.72654 42.3722 1.9e-05 0 77.248 -4.03771 0.791318 17.3 0 3e-06 21.4546 -1e-06 0.003093 0.103456 1.85782 -10.5485 8.31522 9.08275 -170.362 43.5 -2.7e-05 4e-06 -32.975 28.3873 -8.60956 42.3723 -2.84217e-14 1e-05 107.522 32.4468 -45.759 17.3 -6e-06 1.7e-05 21.4546 -1.9e-05 -0.003116 6.90197 -2.60373 -3e-06 14.4338 0.382454 0.395641 12.5881 1e-05 8e-06 18.8383 1.08559 0.706705 12.3432 -1.8e-05 -5e-06 18.4996 1.41002 0.645954 25.8329 2.3e-05 7e-06 8.73273 -4.25451 -3.3284 11.7666 -8e-06 -6e-06 -44.0547 -11.371 7.95187 19.7459 -1.48035 6.0001 -170.974 16.7699 -84.3435 11.2841 1.8e-05 -2e-05 23.4498 -29.144 82.9057 33 -1.3e-05 1.9e-05 -93.0164 -2.13977 -5.12188 25.2 3.2e-05 1.1e-05 -19.7515 34.7509 -2.24907 19.7461 -1.48036 -6.00008 -168.834 -27.279 77.0719 11.2841 0 -1e-06 -10.7627 7.94121 -25.6731 33.0001 1.6e-05 -1e-06 -88.4758 -10.6927 23.1137 25.1998 0.000123 0.000432 -10.2463 -34.3145 29.3303 
133.285 78.2647 236.384 78.4204 -71.7734 -7.67544 0.103456 1.85784 10.5485 -39.1697 10.0862 173.398 43.5 -4.2e-05 1e-05 -36.0529 -4.27511 5.92365 42.3722 1.9e-05 2.84217e-14 77.4641 -3.98035 -0.658395 17.3 3.55271e-15 3e-06 21.4546 -1e-06 0.003093 0.103456 1.85782 -10.5485 9.15596 7.94992 -171.041 43.5 -2.7e-05 4e-06 -37.2509 28.5439 -5.69803 42.3723 0 1e-05 114.532 34.1497 -47.5111 17.3 -6e-06 1.7e-05 21.4546 -1.9e-05 -0.003116 6.90197 -2.60373 -3e-06 14.9981 0.138756 0.39883 12.5881 1e-05 8e-06 19.9728 0.621006 0.77386 12.3432 -1.8e-05 -5e-06 19.6403 0.967582 0.739003 25.8329 2.3e-05 7e-06 8.65613 -4.43641 -2.82643 11.7666 -8e-06 -6e-06 -45.733 -12.6446 8.0272 19.7459 -1.48035 6.0001 -171.718 17.6565 -84.1222 11.2841 1.8e-05 -2e-05 26.2367 -30.1298 83.797 33 -1.3e-05 1.9e-05 -92.4298 -1.42188 -5.0664 25.2 3.2e-05 1.1e-05 -19.4437 35.3807 -2.86419 19.7461 -1.48036 -6.00008 -168.965 -29.2913 78.3592 11.2841 2.84217e-14 -1e-06 -10.5637 12.2696 -23.3739 33.0001 1.6e-05 -1e-06 -87.5577 -14.0655 23.5641 25.1998 0.000123 0.000432 -11.4166 -33.2528 28.11 
132.452 76.6614 234.812 78.6233 -70.4616 -7.65171 0.103456 1.85784 10.5485 -41.2545 10.3077 173.503 43.5 -4.2e-05 1e-05 -34.4167 -4.65631 7.57123 42.3722 1.9e-05 0 76.3427 -1.15685 -1.50545 17.3 -3.55271e-15 3e-06 21.4546 -1e-06 0.003093 0.103456 1.85782 -10.5485 10.3168 6.50868 -170.88 43.5 -2.7e-05 4e-06 -38.6866 29.4712 -5.26105 42.3723 0 1e-05 114.995 33.4641 -47.2397 17.3 -6e-06 1.7e-05 21.4546 -1.9e-05 -0.003116 6.90197 -2.60373 -3e-06 15.9815 0.380283 0.234007 12.5881 1e-05 8e-06 21.9362 1.07821 0.371932 12.3432 -1.8e-05 -5e-06 21.599 1.42843 0.304438 25.8329 2.3e-05 7e-06 8.07942 -3.62543 -2.83485 11.7666 -8e-06 -6e-06 -49.3533 -12.4828 8.2465 19.7459 -1.48035 6.0001 -171.958 20.228 -85.4873 11.2841 1.8e-05 -2e-05 29.979 -32.8952 85.0746 33 -1.3e-05 1.9e-05 -94.0931 -1.54818 -5.0633 25.2 3.2e-05 1.1e-05 -19.644 35.5637 -3.18537 19.7461 -1.48036 -6.00008 -166.752 -31.7282 82.8556 11.2841 -2.84217e-14 -1e-06 -9.39304 21.2522 -23.0592 33.0001 1.6e-05 -1e-06 -91.1098 -13.5649 23.729 25.1998 0.000123 0.000432 -11.835 -32.7276 28.4902 
